<svg width="26" height="26" viewBox="0 0 26 26" fill="none" xmlns="http://www.w3.org/2000/svg">
<path d="M24.0872 11.6458C23.6387 11.6458 23.2747 11.2818 23.2747 10.8333C23.2747 7.72192 22.0637 4.79803 19.8644 2.59778C19.547 2.2804 19.547 1.76584 19.8644 1.44846C20.1818 1.13107 20.6964 1.13107 21.0139 1.44846C23.5197 3.95518 24.8997 7.2887 24.8997 10.8333C24.8997 11.2818 24.5357 11.6458 24.0872 11.6458Z" fill="black" fill-opacity="0.6"/>
<path d="M1.87891 11.6458C1.4304 11.6458 1.06641 11.2818 1.06641 10.8333C1.06641 7.2887 2.44662 3.95518 4.95335 1.44945C5.27074 1.13206 5.78549 1.13206 6.10287 1.44945C6.42026 1.76683 6.42026 2.28159 6.10287 2.59897C3.90262 4.79803 2.69141 7.72192 2.69141 10.8333C2.69141 11.2818 2.32741 11.6458 1.87891 11.6458Z" fill="black" fill-opacity="0.6"/>
<path d="M12.9831 26C10.7428 26 8.92062 24.1778 8.92062 21.9375C8.92062 21.489 9.28462 21.125 9.73312 21.125C10.1816 21.125 10.5456 21.489 10.5456 21.9375C10.5456 23.282 11.6386 24.375 12.9831 24.375C14.3274 24.375 15.4206 23.282 15.4206 21.9375C15.4206 21.489 15.7846 21.125 16.2331 21.125C16.6816 21.125 17.0456 21.489 17.0456 21.9375C17.0456 24.1778 15.2235 26 12.9831 26Z" fill="black" fill-opacity="0.6"/>
<path d="M21.9207 22.75H4.04565C3.00008 22.75 2.14969 21.8996 2.14969 20.8542C2.14969 20.2994 2.3913 19.7741 2.81282 19.4133C4.46043 18.0212 5.39969 15.9977 5.39969 13.8538V10.8333C5.39969 6.65175 8.80144 3.25 12.9832 3.25C17.1647 3.25 20.5664 6.65175 20.5664 10.8333V13.8538C20.5664 15.9977 21.5057 18.0212 23.1426 19.4058C23.5748 19.7741 23.8164 20.2994 23.8164 20.8542C23.8164 21.8996 22.966 22.75 21.9207 22.75ZM12.9832 4.875C9.69725 4.875 7.02469 7.54756 7.02469 10.8333V13.8538C7.02469 16.4763 5.87537 18.9529 3.87228 20.6461C3.8344 20.6787 3.77469 20.7459 3.77469 20.8542C3.77469 21.0014 3.89827 21.125 4.04565 21.125H21.9207C22.0678 21.125 22.1914 21.0014 22.1914 20.8542C22.1914 20.7459 22.1319 20.6787 22.096 20.6483C20.0907 18.9529 18.9414 16.4763 18.9414 13.8538V10.8333C18.9414 7.54756 16.2689 4.875 12.9832 4.875Z" fill="black" fill-opacity="0.6"/>
<path d="M12.9831 4.875C12.5346 4.875 12.1706 4.511 12.1706 4.0625V0.8125C12.1706 0.363998 12.5346 0 12.9831 0C13.4316 0 13.7956 0.363998 13.7956 0.8125V4.0625C13.7956 4.511 13.4316 4.875 12.9831 4.875Z" fill="black" fill-opacity="0.6"/>
</svg>
