<svg width="24" height="24" viewBox="0 0 24 24" fill="none" xmlns="http://www.w3.org/2000/svg">
<path d="M15.8181 12L23.2092 4.60882C24.2636 3.55448 24.2636 1.84509 23.2092 0.790755C22.1549 -0.263585 20.4456 -0.263585 19.3912 0.790755L12 8.18193L4.60882 0.790755C3.55448 -0.263585 1.84509 -0.263585 0.790755 0.790755C-0.263585 1.84509 -0.263585 3.55448 0.790755 4.60882L8.18193 12L0.790755 19.3912C-0.263585 20.4455 -0.263585 22.1549 0.790755 23.2092C1.31792 23.7364 2.00884 24 2.69976 24C3.39068 24 4.08165 23.7364 4.60877 23.2092L12 15.8181L19.3912 23.2092C19.9183 23.7364 20.6093 24 21.3002 24C21.9911 24 22.682 23.7364 23.2092 23.2092C24.2635 22.1549 24.2635 20.4455 23.2092 19.3912L15.8181 12Z" fill="#B0B0B0"/>
</svg>
